<svg width="360" height="360" viewBox="0 0 360 360" fill="none" xmlns="http://www.w3.org/2000/svg">
<rect width="360" height="360" fill="white"/>
<path d="M195.503 292.996L214.089 311.582C214.87 312.363 216.137 312.363 216.918 311.582L344.964 183.535C346.917 181.582 346.917 178.417 344.964 176.464L216.918 48.417C216.137 47.6359 214.87 47.6359 214.089 48.417L195.503 67.0033C194.722 67.7843 194.722 69.0507 195.503 69.8317L300.721 175.05C303.454 177.783 303.454 182.216 300.721 184.949L195.503 290.167C194.722 290.948 194.722 292.215 195.503 292.996Z" fill="url(#paint0_linear_440_1098)"/>
<path d="M164.497 67.0025L145.911 48.4162C145.13 47.6351 143.863 47.6351 143.082 48.4162L15.0355 176.463C13.0829 178.416 13.0829 181.582 15.0355 183.534L143.082 311.581C143.863 312.362 145.13 312.362 145.911 311.581L164.497 292.995C165.278 292.214 165.278 290.947 164.497 290.166L59.2792 184.948C56.5455 182.215 56.5455 177.783 59.2792 175.049L164.497 69.8309C165.278 69.0498 165.278 67.7835 164.497 67.0025Z" fill="url(#paint1_linear_440_1098)"/>
<circle cx="158.585" cy="210.995" r="14.0886" fill="#29C49C"/>
<circle cx="120.264" cy="210.995" r="14.0886" fill="#29C49C"/>
<circle cx="196.906" cy="210.995" r="14.0886" fill="#29C49C"/>
<path d="M220.655 217.868C237.173 202.383 229.258 192.059 223.236 188.833C223.904 184.824 226.591 181.86 229.162 179.976C231.481 178.276 234.322 177.36 237.197 177.338C245.447 177.277 248.947 183.37 249.69 186.898C251.755 203.932 235.925 219.374 227.753 224.966L220.655 217.868Z" fill="#29C49C"/>
<circle cx="236.14" cy="150.238" r="14.1948" fill="#29C49C"/>
<defs>
<linearGradient id="paint0_linear_440_1098" x1="247.625" y1="281.438" x2="247.625" y2="72.3623" gradientUnits="userSpaceOnUse">
<stop stop-color="#34ABCC"/>
<stop offset="1" stop-color="#947FD1"/>
</linearGradient>
<linearGradient id="paint1_linear_440_1098" x1="112.375" y1="78.5605" x2="112.375" y2="287.636" gradientUnits="userSpaceOnUse">
<stop stop-color="#34ABCC"/>
<stop offset="1" stop-color="#947FD1"/>
</linearGradient>
</defs>
</svg>
