<svg width="360" height="360" viewBox="0 0 360 360" fill="none" xmlns="http://www.w3.org/2000/svg">
<rect width="360" height="360" fill="white"/>
<path d="M203.825 292.994L222.411 311.58C223.192 312.361 224.459 312.361 225.24 311.58L353.287 183.533C355.239 181.58 355.239 178.415 353.287 176.462L225.24 48.415C224.459 47.634 223.192 47.634 222.411 48.415L203.825 67.0013C203.044 67.7824 203.044 69.0487 203.825 69.8298L309.043 175.048C311.777 177.781 311.777 182.214 309.043 184.947L203.825 290.165C203.044 290.946 203.044 292.213 203.825 292.994Z" fill="url(#paint0_linear_440_1098)"/>
<path d="M156.997 67.0005L138.411 48.4142C137.63 47.6332 136.363 47.6332 135.582 48.4142L7.53553 176.461C5.58291 178.414 5.58292 181.58 7.53554 183.532L135.582 311.579C136.363 312.36 137.63 312.36 138.411 311.579L156.997 292.993C157.778 292.212 157.778 290.945 156.997 290.164L51.7792 184.946C49.0455 182.213 49.0455 177.781 51.7792 175.047L156.997 69.8289C157.778 69.0479 157.778 67.7816 156.997 67.0005Z" fill="url(#paint1_linear_440_1098)"/>
<circle cx="160.41" cy="209.952" r="14.0886" fill="#29C49C"/>
<circle cx="122.089" cy="209.952" r="14.0886" fill="#29C49C"/>
<circle cx="198.731" cy="209.952" r="14.0886" fill="#29C49C"/>
<path d="M222.48 216.825C238.998 201.34 231.083 191.017 225.061 187.79C225.729 183.781 228.416 180.817 230.986 178.933C233.306 177.233 236.147 176.317 239.022 176.295C247.272 176.234 250.772 182.327 251.515 185.855C253.58 202.889 237.75 218.331 229.577 223.923L222.48 216.825Z" fill="#29C49C"/>
<circle cx="237.965" cy="149.195" r="14.1948" fill="#29C49C"/>
<defs>
<linearGradient id="paint0_linear_440_1098" x1="255.948" y1="281.436" x2="255.948" y2="72.3604" gradientUnits="userSpaceOnUse">
<stop stop-color="#34ABCC"/>
<stop offset="1" stop-color="#947FD1"/>
</linearGradient>
<linearGradient id="paint1_linear_440_1098" x1="104.875" y1="78.5585" x2="104.875" y2="287.634" gradientUnits="userSpaceOnUse">
<stop stop-color="#34ABCC"/>
<stop offset="1" stop-color="#947FD1"/>
</linearGradient>
</defs>
</svg>
